<?xml version="1.0" encoding="utf-8"?>
<!-- Generator: Adobe Illustrator 16.0.0, SVG Export Plug-In . SVG Version: 6.00 Build 0)  -->
<!DOCTYPE svg PUBLIC "-//W3C//DTD SVG 1.1//EN" "http://www.w3.org/Graphics/SVG/1.1/DTD/svg11.dtd">
<svg version="1.1" id="Camada_1" xmlns="http://www.w3.org/2000/svg" xmlns:xlink="http://www.w3.org/1999/xlink" x="0px" y="0px"
	 width="493.5px" height="132.225px" viewBox="0 0 493.5 132.225" enable-background="new 0 0 493.5 132.225" xml:space="preserve">
<g>
	<path fill="#F33D00" d="M396.004,132.225c-2.418-0.516-4.839-1.021-7.255-1.55c-21.052-4.6-32.44-18.374-33.367-41.238
		c-0.267-6.57,0.163-13.385,1.638-19.772c5.676-24.604,28.696-31.746,44.645-29.783c27.233,3.35,41.915,24.125,37.61,53.013
		c-19.279,0-38.653,0-57.967,0c-0.629,7.269,2.832,13.311,8.949,16.27c6.879,3.328,15.559,2.015,21.114-2.655
		c1.801-1.514,4.477-2.576,6.826-2.728c5.916-0.382,11.875-0.127,18.25-0.127c-1.508,12.662-8.15,19.973-18.281,24.289
		c-4.51,1.921-9.428,2.884-14.161,4.282C401.338,132.225,398.67,132.225,396.004,132.225z M413.247,76.151
		c0.334-6.354-2.104-10.986-7.29-13.883c-6.346-3.545-12.811-3.267-18.747,1.021c-4.292,3.1-6.407,7.332-5.286,12.862
		C392.467,76.151,402.7,76.151,413.247,76.151z"/>
	<path fill="#F33D00" d="M135.004,132.225c-2.076-0.518-4.146-1.064-6.23-1.547c-19.922-4.611-31.333-17.857-32.354-38.893
		c-0.382-7.872-0.067-16.136,1.918-23.698c5.912-22.515,27.114-29.177,42.981-28.203c32.248,1.979,41.386,29.133,38.913,53.114
		c-9.692,0-19.461,0-29.231,0c-9.621,0-19.243,0-28.804,0c-0.717,7.134,2.357,13.083,8.34,16.02
		c7.181,3.525,14.448,3.318,20.599-1.869c3-2.531,5.761-3.299,9.39-3.153c5.288,0.212,10.591,0.055,16.176,0.055
		c0.396,5.907-1.769,10.135-4.639,14.022c-5.437,7.366-13.193,10.926-21.858,12.904c-1.421,0.325-2.801,0.828-4.2,1.248
		C142.338,132.225,138.671,132.225,135.004,132.225z M153.921,76.149c0.32-9.167-6.245-15.846-15.492-16.047
		c-9.411-0.206-16.122,6.341-16.045,16.047C132.752,76.149,143.132,76.149,153.921,76.149z"/>
	<path fill="#F33D00" d="M2.004,41.225c6.796-0.196,13.593-0.509,20.387-0.457c0.967,0.008,2.181,1.64,2.815,2.779
		c0.87,1.562,1.294,3.373,1.656,4.372c6.704-2.662,13.005-6.194,19.753-7.65c20.274-4.374,38.482,10.065,38.996,30.688
		c0.447,17.977,0.22,35.968,0.43,53.951c0.046,3.908-1.521,5.418-5.348,5.253c-4.489-0.194-9.014-0.404-13.48-0.056
		c-4.677,0.365-5.752-1.943-5.735-5.927c0.064-15.153,0.041-30.308,0.017-45.461c-0.004-2.16,0.008-4.353-0.336-6.474
		c-1.411-8.676-9.791-13.923-18.748-11.857c-9.604,2.215-15.712,9.681-15.793,19.74c-0.118,14.653-0.14,29.31,0.027,43.962
		c0.049,4.266-1.397,6.197-5.771,5.939c-6.284-0.371-12.579-0.545-18.869-0.803C2.004,99.892,2.004,70.558,2.004,41.225z"/>
	<path fill="#F33D00" d="M491.005,130.225c-5.822,0.003-11.688-0.443-17.457,0.108c-10.27,0.982-23.039-8.204-23.352-22.334
		c-0.525-23.616-0.58-47.242-0.83-70.864c-0.125-11.97-0.242-23.94-0.361-35.91c8.332,0,16.666,0,25,0
		c-0.037,10.296-0.092,20.591-0.105,30.887c-0.029,22.918-0.057,45.836-0.043,68.754c0.004,6.75,2.389,9.306,8.689,9.44
		c2.818,0.061,5.639-0.049,8.459-0.081C491.005,116.892,491.005,123.558,491.005,130.225z"/>
	<path fill="#F33D00" d="M349.827,109.678c0,6.403,0.18,12.054-0.152,17.674c-0.065,1.11-2.08,2.989-3.222,3.008
		c-7.323,0.124-14.685,0.204-21.972-0.419c-10.374-0.888-19.096-12.305-19.209-24.625c-0.115-12.66-0.078-25.322-0.105-37.983
		c-0.004-1.808-0.001-3.616-0.001-5.996c-3.965-0.208-7.524-0.395-11.438-0.6c0-6.347,0-12.569,0-19.143
		c1.62-0.136,3.063-0.332,4.513-0.365c6.888-0.158,6.889-0.143,6.893-7.261c0.004-4.961,0.001-9.921,0.001-15.187
		c8.269,0,16.032,0,24.71,0c0,5.616,0.232,11.375-0.078,17.104c-0.226,4.174,1.234,5.638,5.381,5.395
		c4.946-0.29,9.922-0.068,15.516-0.068c0,5.979,0.158,11.428-0.159,16.848c-0.052,0.887-2.159,2.271-3.394,2.358
		c-4.311,0.306-8.657,0.243-12.984,0.125c-3-0.082-4.102,1.129-4.078,4.129c0.101,12.827-0.039,25.656,0.085,38.482
		c0.054,5.521,1.296,6.503,6.958,6.521C341.202,109.688,345.315,109.678,349.827,109.678z"/>
	<path fill="#F33D00" d="M287.518,40.603c0.636,9.357,1.089,17.65-5.757,24.843c-5.005,5.258-8.71,11.734-13.2,17.508
		c-1.756,2.257-1.688,3.821,0.089,6.039c5.513,6.874,10.663,14.04,16.209,20.887c4.478,5.525,2.228,11.746,2.267,17.719
		c0.004,0.555-1.945,1.521-3.045,1.613c-3.973,0.336-7.988,0.662-11.95,0.403c-1.681-0.109-3.774-1.283-4.815-2.639
		c-9.228-11.993-18.276-24.123-27.34-36.241c-2.687-3.592-2.803-7.193,0.014-10.896c9.061-11.912,18.115-23.83,27.007-35.867
		c1.895-2.565,3.932-3.625,7.101-3.434C278.385,40.797,282.7,40.603,287.518,40.603z"/>
	<path fill="#F33D00" d="M184.597,41.247c5.546,0,10.846-0.171,16.12,0.117c1.368,0.075,3.03,1.305,3.926,2.483
		c9.267,12.198,18.428,24.477,27.563,36.775c2.577,3.471,2.5,7.097-0.087,10.55c-8.986,11.993-17.931,24.02-27.125,35.852
		c-1.19,1.531-3.735,2.032-5.689,2.931c-0.412,0.189-0.994,0.08-1.485,0.016c-4.255-0.558-8.507-1.136-12.76-1.708
		c0.27-6.61-2.103-13.443,3.225-19.48c5.388-6.104,9.951-12.929,15.086-19.267c1.931-2.383,1.934-4.093,0.044-6.494
		c-4.221-5.361-8.15-10.953-12.199-16.449C183.846,56.566,183.403,54.953,184.597,41.247z"/>
</g>
</svg>
