<?xml version="1.0" encoding="utf-8"?>
<!-- Generator: Adobe Illustrator 16.0.0, SVG Export Plug-In . SVG Version: 6.00 Build 0)  -->
<!DOCTYPE svg PUBLIC "-//W3C//DTD SVG 1.1//EN" "http://www.w3.org/Graphics/SVG/1.1/DTD/svg11.dtd">
<svg version="1.1" id="Camada_1" xmlns="http://www.w3.org/2000/svg" xmlns:xlink="http://www.w3.org/1999/xlink" x="0px" y="0px"
	 width="655.334px" height="176.217px" viewBox="0 0 655.334 176.217" enable-background="new 0 0 655.334 176.217"
	 xml:space="preserve">
<g>
	<path fill="#063B88" d="M652.736,5.589c0,55.215,0,110.429,0,165.643c-1.172,0.694-2.268,1.704-3.533,2.011
		c-2.314,0.562-4.73,0.709-7.105,1.028c-6.247,0-12.495,0-18.742,0c-1.831-0.223-3.668-0.405-5.492-0.675
		c-3.521-0.521-4.084-1.19-4.084-4.728c-0.002-30.884,0-61.767-0.009-92.65c-0.001-1.032-0.111-2.065-0.171-3.098
		c-0.248-0.046-0.495-0.092-0.744-0.138c-0.301,0.688-0.638,1.364-0.896,2.069c-0.896,2.45-1.683,4.943-2.657,7.361
		c-8.025,19.921-16.122,39.812-24.084,59.758c-1.109,2.779-3.012,4.052-5.729,4.081c-8.432,0.091-16.865,0.091-25.297-0.011
		c-3.234-0.039-5.337-1.653-6.608-4.858c-3.013-7.593-6.408-15.033-9.552-22.575c-6.219-14.92-12.369-29.87-18.571-44.798
		c-0.156-0.376-0.576-0.643-1.327-1.447c-0.076,1.653-0.165,2.702-0.165,3.75c-0.008,30.799-0.005,61.598-0.008,92.397
		c0,3.528-0.325,4.024-3.872,4.619c-2.728,0.458-5.502,0.638-8.255,0.941c-5.234,0-10.469,0-15.703,0
		c-2.583-0.309-5.163-0.624-7.746-0.923c-2.466-0.284-3.343-1.626-3.341-4.115c0.048-53.834,0.049-107.668-0.004-161.502
		c-0.002-2.512,0.939-3.819,3.351-4.126c2.915-0.372,5.835-0.706,8.753-1.056c6.586,0,13.171,0,19.756,0
		c3.088,0.348,6.176,0.697,9.265,1.044c3.466,0.388,5.691,1.99,7.103,5.45c5.408,13.259,11.164,26.375,16.695,39.584
		c8.133,19.417,16.797,38.629,22.936,58.825c0.082,0.269,0.281,0.501,0.598,1.047c1.18-3.411,2.107-6.561,3.34-9.585
		c12.464-30.579,24.982-61.135,37.466-91.705c0.853-2.087,2.343-3.275,4.521-3.549c3.336-0.419,6.684-0.745,10.026-1.11
		c5.572,0,11.144,0,16.716,0c1.996,0.195,4.043,0.173,5.973,0.64C647.986,3.782,650.34,4.771,652.736,5.589z"/>
	<path fill="#063B88" d="M377.677,2.55c1.651,0.646,2.576,1.82,2.57,3.626c-0.033,9.931-0.014,19.863-0.156,29.792
		c-0.037,2.621-1.855,3.444-4.344,3.431c-11.553-0.057-23.107-0.024-34.661-0.024c-1.004,0-2.008,0-3.453,0c0,1.323,0,2.464,0,3.604
		c0,41.83,0,83.658-0.001,125.487c0,3.835-0.292,4.283-4.127,4.917c-2.645,0.438-5.334,0.601-8.004,0.887
		c-5.234,0-10.469,0-15.703,0c-2.088-0.206-4.178-0.396-6.264-0.622c-4.085-0.439-4.754-1.177-4.754-5.218
		c-0.001-41.782-0.001-83.563-0.001-125.345c0-1.09,0-2.181,0-3.71c-1.106,0-2.073,0-3.04,0c-11.564,0-23.127,0.006-34.691-0.004
		c-3.641-0.004-4.747-0.76-4.807-4.297c-0.16-9.61-0.076-19.225-0.077-28.837c0-1.763,0.758-3.054,2.471-3.688
		C298.317,2.55,337.997,2.55,377.677,2.55z"/>
	<path fill="#E40D2C" d="M4.347,10.655c0.288-0.589,0.589-1.171,0.86-1.767c1.595-3.511,4.235-5.6,8.131-5.951
		c0.923-0.083,1.854-0.101,2.781-0.102C76.723,2.831,137.327,2.831,197.93,2.838c1.095,0,2.199,0.026,3.282,0.166
		c4.628,0.597,8.144,4.164,8.268,8.791c0.165,6.157,0.159,12.323,0.005,18.481c-0.114,4.551-3.509,8.124-8.004,8.745
		c-1.497,0.207-3.028,0.217-4.543,0.217c-59.844,0.01-119.688-0.042-179.532,0.083c-6.254,0.013-10.85-1.711-13.059-7.897
		C4.347,24.5,4.347,17.578,4.347,10.655z"/>
	<path fill="#063B88" d="M418.707,174.271c-2.587-0.284-5.176-0.567-7.762-0.854c-2.398-0.267-3.426-1.44-3.423-4.014
		c0.058-53.944,0.058-107.888-0.001-161.832c-0.003-2.585,1.041-3.733,3.437-4.004c2.923-0.331,5.843-0.678,8.763-1.018
		c4.559,0,9.118,0,13.678,0c3.172,0.371,6.354,0.678,9.514,1.133c2.397,0.345,3.551,1.609,3.549,4.29
		c-0.049,53.692-0.033,107.385,0.032,161.077c0.003,2.65-1.077,3.93-3.573,4.229c-2.836,0.34-5.672,0.663-8.509,0.993
		C429.177,174.271,423.941,174.271,418.707,174.271z"/>
	<path fill="#E40D2C" d="M4.347,78.026c0.979-1.637,1.772-3.429,2.981-4.874c1.839-2.196,4.459-2.935,7.269-2.936
		c23.196-0.009,46.392-0.009,69.588-0.007c1.107,0,2.208-0.11,2.2,1.607c-0.056,11.385-0.057,22.771-0.085,34.157
		c0,0.149-0.125,0.297-0.329,0.754c-0.85,0-1.837,0-2.824,0c-21.847,0-43.694-0.123-65.539,0.077
		c-6.34,0.058-11.009-1.743-13.261-8.01C4.347,91.872,4.347,84.949,4.347,78.026z"/>
	<path fill="#E40D2C" d="M4.347,145.398c0.18-0.269,0.417-0.515,0.531-0.81c1.854-4.793,4.786-6.977,9.984-6.988
		c23.031-0.048,46.062-0.006,69.093-0.055c1.837-0.004,2.477,0.49,2.46,2.425c-0.09,10.544-0.091,21.091,0,31.635
		c0.017,1.95-0.653,2.417-2.473,2.413c-22.946-0.047-45.893-0.064-68.839-0.008c-5.606,0.014-8.873-2.897-10.756-7.844
		C4.347,159.244,4.347,152.321,4.347,145.398z"/>
	<path fill="#E40D2C" d="M164.877,106.616c-11.387,0.001-22.775-0.052-34.161,0.046c-2.297,0.02-3.043-0.651-3.017-2.993
		c0.114-10.205,0.106-20.413,0.004-30.618c-0.022-2.206,0.623-2.897,2.861-2.891c22.774,0.073,45.549,0.021,68.323,0.06
		c6.891,0.012,10.639,3.81,10.68,10.645c0.031,5.061,0.037,10.122-0.003,15.183c-0.053,6.689-3.81,10.511-10.526,10.549
		C187.652,106.66,176.264,106.614,164.877,106.616z"/>
	<path fill="#E40D2C" d="M164.853,173.988c-11.387,0.001-22.775-0.057-34.161,0.048c-2.335,0.021-3.014-0.718-2.99-3.02
		c0.107-10.206,0.106-20.413,0-30.619c-0.023-2.24,0.683-2.871,2.885-2.864c22.774,0.069,45.549,0.019,68.324,0.059
		c6.875,0.012,10.614,3.822,10.656,10.669c0.031,5.061,0.039,10.122-0.003,15.183c-0.055,6.678-3.825,10.491-10.55,10.526
		C187.627,174.029,176.24,173.987,164.853,173.988z"/>
</g>
</svg>
