<?xml version="1.0" encoding="utf-8"?>
<!-- Generator: Adobe Illustrator 16.0.0, SVG Export Plug-In . SVG Version: 6.00 Build 0)  -->
<!DOCTYPE svg PUBLIC "-//W3C//DTD SVG 1.1//EN" "http://www.w3.org/Graphics/SVG/1.1/DTD/svg11.dtd">
<svg version="1.1" id="Camada_1" xmlns="http://www.w3.org/2000/svg" xmlns:xlink="http://www.w3.org/1999/xlink" x="0px" y="0px"
	 width="1476px" height="551px" viewBox="0 0 1476 551" enable-background="new 0 0 1476 551" xml:space="preserve">
<g id="_x23_650199ff">
	<path fill="#650199" d="M538.64,0h7.83c20.54,1.15,40.41,11.261,53.149,27.46C610.11,40.5,615.81,57.26,615.5,73.99
		c-0.181,16.75-6.381,33.38-17.301,46.1C587.07,133.3,571.09,142.34,554,144.96c-15.4,2.471-31.58-0.149-45.37-7.439
		c-15.46-8.05-27.82-21.86-34.101-38.12c-5.63-14.351-6.49-30.51-2.479-45.39c4.04-15.37,13.39-29.25,25.989-38.921
		C509.63,6.07,524.01,0.92,538.64,0z"/>
	<path fill="#650199" d="M65.59,180.54c17.06-7.149,38.09-1.02,49.26,13.54c3.62,4.391,5.75,9.72,8.3,14.75
		c30.431,61.04,60.75,122.13,91.15,183.181c0.34,0.01,1.02,0.02,1.36,0.029C246.64,329.9,277.56,267.72,308.53,205.57
		c2.16-4.66,4.57-9.271,8.04-13.11c11.4-13.42,31.5-18.76,47.87-11.939c14.6,6.38,29.07,13.04,43.65,19.45
		c13.31,6.529,22.399,21.109,21.97,36c-0.04,7.92-2.75,15.6-6.72,22.369C373.78,346.11,324.25,433.91,274.69,521.69
		c-8.3,14.91-24.649,24.94-41.7,25.55c-10.67,0.04-21.34-0.02-32.01,0.021c-16,0.67-32.08-7-41.72-19.771
		c-3.11-4-5.36-8.58-7.89-12.95C102.92,428.69,54.45,342.86,6,257.01c-3.26-5.801-5.36-12.24-6-18.87v-6.32
		c1.52-13.6,10.149-26.42,22.689-32.15C37.03,193.37,51.25,186.82,65.59,180.54z"/>
	<path fill="#650199" d="M717.21,182.1c15.579-8.13,35.88-5,48.449,7.22c4.681,4.3,8.2,9.72,10.74,15.52
		c20.47,41.15,40.91,82.32,61.42,123.46c10.71,21.32,21.09,42.82,32.021,64.021c0.35-0.271,1.069-0.81,1.43-1.09
		c31.88-63.811,63.6-127.7,95.41-191.54c9.7-17.94,33.1-27.08,52.21-19.48c14.79,6.38,29.39,13.19,44.149,19.641
		c12.881,6.18,21.82,19.84,22.261,34.13c0.3,8.399-2.29,16.689-6.49,23.89c-48.68,86.28-97.39,172.54-146.08,258.811
		c-1.81,3.149-3.5,6.38-5.6,9.35c-9.38,13.41-25.7,21.74-42.08,21.23c-11.011-0.04-22.021,0.029-33.03-0.03
		c-15.77-0.69-31.01-9.36-39.6-22.62c-2.79-4.37-5.17-8.979-7.761-13.46c-47.01-83.27-93.989-166.55-141.01-249.82
		c-3.87-6.54-7.32-13.54-8.16-21.189c-2.399-17.19,8.311-35.07,24.42-41.351C692.36,193.26,704.77,187.65,717.21,182.1z"/>
	<path fill="#650199" d="M1237.119,186.39c38-11.23,79.59-9.96,116.79,3.72c34.94,12.72,65.8,36.26,87.391,66.52
		c21.37,29.591,33.43,65.61,34.7,102.061v11.92c-1.11,35.22-12.32,70.07-32.28,99.14c-20.87,30.66-51.09,54.86-85.63,68.391
		c-19.61,7.81-40.59,11.93-61.65,12.859h-12.06c-26.671-0.869-53.171-7.329-77.07-19.239c-32.41-16.011-59.93-41.7-78.15-72.91
		c-20.6-34.91-29.029-76.681-24.02-116.86c4.8-39.87,23.08-77.94,51.16-106.64C1178.409,212.42,1206.56,195.38,1237.119,186.39
		 M1276.52,292.73c-26.65,4.64-49.59,25.319-57.05,51.31c-5.63,18.83-3.28,39.9,6.489,56.971c8.7,15.45,23.171,27.56,39.961,33.29
		c17.67,6.17,37.71,5.18,54.68-2.721c15.3-7.039,28.03-19.51,35.359-34.68c7.681-15.68,9.41-34.16,4.851-51.01
		c-4.84-18.351-17.2-34.511-33.54-44.13C1312.19,292.73,1293.789,289.51,1276.52,292.73z"/>
	<path fill="#650199" d="M514.539,183.67c3.421-0.739,6.94-1.029,10.45-1c12.65,0.04,25.311-0.02,37.96,0.03
		c12.48,0.24,24.69,6.05,32.79,15.53c7.11,8.14,11.08,18.93,10.96,29.729c-0.01,88.37-0.01,176.74-0.01,265.11
		c-0.06,7.03,0.48,14.22-1.56,21.061c-3.61,13.54-13.95,25.06-27.04,30.069c-5.721,2.311-11.92,3.17-18.061,3.12
		c-12.68-0.06-25.359,0.11-38.029-0.09c-18.341-0.53-35.41-13.6-40.801-31.12c-2.859-8.09-2.04-16.75-2.14-25.149
		c0-84.33,0-168.65,0-252.971c0.08-7.75-0.601-15.68,1.83-23.18C485.34,199.34,498.75,186.89,514.539,183.67z"/>
</g>
</svg>
