<?xml version="1.0" encoding="utf-8"?>
<!-- Generator: Adobe Illustrator 16.0.0, SVG Export Plug-In . SVG Version: 6.00 Build 0)  -->
<!DOCTYPE svg PUBLIC "-//W3C//DTD SVG 1.1//EN" "http://www.w3.org/Graphics/SVG/1.1/DTD/svg11.dtd">
<svg version="1.1" id="Camada_1" xmlns="http://www.w3.org/2000/svg" xmlns:xlink="http://www.w3.org/1999/xlink" x="0px" y="0px"
	 width="436.977px" height="440.58px" viewBox="0 0 436.977 440.58" enable-background="new 0 0 436.977 440.58"
	 xml:space="preserve">
<g>
	<path fill-rule="evenodd" clip-rule="evenodd" fill="#FFFFFF" d="M0,440.58c0.72-2.415,1.089-3.8,1.544-5.155
		c11.816-35.197,23.59-70.41,35.548-105.56c1.134-3.333,0.835-5.838-0.875-8.829C15.956,285.607,6.574,247.381,8.085,206.667
		C11.827,105.85,85.087,21.562,184.338,3.483c115.803-21.095,227.278,55.809,248.936,171.734
		c22.065,118.111-56.785,231.259-175.356,251.046c-46.947,7.834-91.855,0.706-134.213-21.243c-3.411-1.767-6.231-1.916-9.825-0.751
		C77.771,415.978,41.605,427.51,5.452,439.083C4.045,439.533,2.603,439.869,0,440.58z M55.774,385.544
		c2.893-0.843,4.747-1.334,6.57-1.921c19.019-6.122,38.005-12.351,57.086-18.271c2.196-0.682,5.429-0.499,7.32,0.673
		c36.167,22.413,75.354,31.235,117.553,26.238c38.265-4.531,71.922-19.878,99.702-46.395
		c46.601-44.479,65.181-99.125,54.648-162.827C382.417,84.833,282.783,18.324,185.492,39.416
		c-86.861,18.831-148.585,99.225-141.55,188.46c2.478,31.427,12.193,60.253,29.929,86.261c2.992,4.386,3.373,7.98,1.645,12.852
		c-6.183,17.421-11.943,34.991-17.853,52.509C57.104,381.153,56.618,382.833,55.774,385.544z"/>
	<path fill="#2AB200" d="M55.774,385.544c0.844-2.711,1.33-4.392,1.889-6.048c5.91-17.518,11.67-35.088,17.853-52.509
		c1.729-4.871,1.347-8.466-1.645-12.852c-17.735-26.008-27.451-54.834-29.929-86.261c-7.035-89.235,54.689-169.629,141.55-188.46
		c97.291-21.092,196.925,45.417,213.162,143.626c10.532,63.702-8.048,118.348-54.648,162.827
		c-27.78,26.517-61.438,41.863-99.702,46.395c-42.199,4.997-81.386-3.825-117.553-26.238c-1.891-1.172-5.124-1.354-7.32-0.673
		c-19.081,5.921-38.067,12.149-57.086,18.271C60.521,384.21,58.667,384.702,55.774,385.544z M118.834,167.326
		c0.959,5.879,1.482,11.869,2.96,17.615c4.006,15.571,12.906,28.615,21.866,41.693c28.461,41.549,65.485,71.223,114.729,84.624
		c11.714,3.188,23.314,6.083,35.248,2.344c26.038-8.16,36.913-19.628,37.956-42.511c0.178-3.903,0.31-7.82-3.992-9.882
		c-14.23-6.819-28.387-13.802-42.753-20.322c-6.416-2.912-8.203-1.837-12.632,3.842c-5.015,6.43-10.287,12.657-15.468,18.956
		c-2.526,3.071-5.568,3.79-9.338,2.305c-31.198-12.291-55.05-33.098-72.145-61.851c-2.429-4.086-1.785-7.183,1.254-10.722
		c4.53-5.274,8.634-10.929,12.687-16.589c2.531-3.536,2.239-7.301,0.488-11.328c-4.835-11.117-9.367-22.366-14.015-33.564
		c-6.069-14.625-6.251-14.666-22.064-14.281c-5.925,0.145-11.092,1.745-15.373,5.973
		C126.091,135.629,119.112,149.838,118.834,167.326z"/>
	<path fill-rule="evenodd" clip-rule="evenodd" fill="#FFFFFF" d="M118.834,167.326c0.278-17.487,7.257-31.696,19.408-43.698
		c4.281-4.228,9.447-5.829,15.373-5.973c15.813-0.385,15.995-0.345,22.064,14.281c4.647,11.198,9.179,22.447,14.015,33.564
		c1.751,4.027,2.043,7.792-0.488,11.328c-4.052,5.66-8.157,11.315-12.687,16.589c-3.04,3.54-3.684,6.636-1.254,10.722
		c17.095,28.753,40.947,49.56,72.145,61.851c3.77,1.485,6.812,0.767,9.338-2.305c5.181-6.299,10.453-12.526,15.468-18.956
		c4.429-5.679,6.216-6.754,12.632-3.842c14.366,6.521,28.522,13.503,42.753,20.322c4.302,2.062,4.17,5.979,3.992,9.882
		c-1.043,22.883-11.918,34.351-37.956,42.511c-11.934,3.739-23.534,0.845-35.248-2.344c-49.244-13.401-86.267-43.075-114.729-84.624
		c-8.959-13.078-17.859-26.122-21.866-41.693C120.316,179.195,119.793,173.205,118.834,167.326z"/>
</g>
</svg>
